<svg width="20" height="18" viewBox="0 0 20 18" fill="none" xmlns="http://www.w3.org/2000/svg">
<path fill-rule="evenodd" clip-rule="evenodd" d="M0.386059 5.58502L9.38606 0.163158C9.74717 -0.0543858 10.2528 -0.0543858 10.6139 0.163158L19.6139 5.58502C19.8575 5.73176 20 5.95739 20 6.19641V14.7165C20 15.9998 18.6569 17.0401 17 17.0401H13.0385C13.0258 17.0405 13.013 17.0407 13.0002 17.0407C12.9873 17.0407 12.9746 17.0405 12.9618 17.0401H7.03852C7.0258 17.0405 7.01301 17.0407 7.00017 17.0407C6.98734 17.0407 6.97455 17.0405 6.96183 17.0401H3C1.34315 17.0401 0 15.9998 0 14.7165V6.19641C0 5.95739 0.142473 5.73176 0.386059 5.58502ZM8.00017 15.4908H12.0002V9.29518H8.00017V15.4908ZM14.0002 15.4908V8.52062C14.0002 8.09285 13.5525 7.74607 13.0002 7.74607H7.00017C6.44789 7.74607 6.00017 8.09285 6.00017 8.52062V15.4908H3.00035C2.44807 15.4908 2.00035 15.1441 2.00035 14.7163V6.57503L10.0004 1.7556L18.0004 6.57503V14.7163C18.0004 15.1441 17.5526 15.4908 17.0004 15.4908H14.0002Z" fill="#41426F"/>
</svg>
