<svg width="15" height="15" viewBox="0 0 15 15" fill="none" xmlns="http://www.w3.org/2000/svg">
<path d="M13.9699 10.569C13.8067 10.3952 13.2307 9.88132 12.1717 9.20149C11.1049 8.51571 10.3182 8.08812 10.0925 7.98841C10.0726 7.97959 10.0507 7.97635 10.0291 7.97905C10.0075 7.98175 9.98706 7.99028 9.96996 8.00373C9.60644 8.28723 8.99443 8.80796 8.96161 8.8361C8.74969 9.0177 8.74969 9.0177 8.57622 8.96112C8.27115 8.8611 7.32345 8.35787 6.49764 7.53019C5.67184 6.70251 5.14266 5.73136 5.04264 5.4266C4.98544 5.25282 4.98544 5.25282 5.16766 5.0409C5.1958 5.00808 5.71685 4.39607 6.00035 4.03286C6.01379 4.01576 6.02232 3.99531 6.02502 3.97373C6.02772 3.95214 6.02448 3.93022 6.01566 3.91034C5.91595 3.68435 5.48836 2.89793 4.80258 1.83113C4.12181 0.772466 3.60857 0.196404 3.43479 0.033243C3.41884 0.0181938 3.39913 0.00772472 3.37773 0.00293891C3.35633 -0.0018469 3.33404 -0.00077221 3.3132 0.00604964C2.70571 0.214809 2.11959 0.481184 1.56282 0.801535C1.02533 1.11399 0.516476 1.47327 0.0421731 1.87521C0.0256164 1.88928 0.0132033 1.9076 0.00626521 1.92819C-0.000672912 1.94879 -0.00187436 1.97088 0.00278962 1.99211C0.0681163 2.29655 0.380372 3.56745 1.34933 5.32783C2.33799 7.12447 3.02314 8.04499 4.47501 9.49186C5.92689 10.9387 6.87647 11.6651 8.67499 12.6538C10.4354 13.6228 11.7069 13.9353 12.0107 14C12.032 14.0047 12.0541 14.0034 12.0748 13.9965C12.0954 13.9896 12.1138 13.9772 12.1279 13.9606C12.5298 13.4864 12.889 12.9775 13.2013 12.44C13.5216 11.8832 13.788 11.2971 13.9968 10.6896C14.0035 10.6689 14.0045 10.6469 13.9998 10.6256C13.995 10.6044 13.9847 10.5849 13.9699 10.569Z" fill="#41426F"/>
</svg>
