<svg width="62" height="62" viewBox="0 0 62 62" fill="none" xmlns="http://www.w3.org/2000/svg">
<path d="M30.5078 40.2018V40.7028V40.2018ZM24.2812 20.2336L24.6224 19.8668L24.6199 19.8645L24.2812 20.2336ZM22.6354 19.5768L22.6379 19.0758L22.629 19.0758L22.62 19.0761L22.6354 19.5768ZM22.4829 19.5815L22.4675 19.0808L22.4591 19.081L22.4506 19.0816L22.4829 19.5815ZM20.0163 22.5651L20.5173 22.5651L20.5173 22.5639L20.0163 22.5651ZM20.6109 24.1606L21.0187 23.8696L21.0139 23.8631L20.6109 24.1606ZM20.7879 24.2643L20.7438 24.7633L20.7658 24.7652H20.7879V24.2643ZM20.836 24.2643L20.836 24.7653L20.8456 24.7651L20.836 24.2643ZM20.9748 24.1875L20.6115 23.8426L20.5845 23.871L20.5623 23.9033L20.9748 24.1875ZM24.2954 20.6901L24.6587 21.035L24.6637 21.0297L24.2954 20.6901ZM24.3801 20.4557L23.8794 20.472L23.8795 20.4746L24.3801 20.4557ZM36.7267 20.2336L36.388 19.8645L36.3855 19.8668L36.7267 20.2336ZM38.3725 19.5768L38.3879 19.0761L38.3789 19.0758L38.3699 19.0758L38.3725 19.5768ZM38.5249 19.5815L38.5573 19.0816L38.5488 19.081L38.5403 19.0808L38.5249 19.5815ZM40.9915 22.5651L40.4906 22.5639V22.5651H40.9915ZM40.397 24.1606L39.9939 23.8631L39.9901 23.8685L40.397 24.1606ZM40.22 24.2637V24.7646H40.2416L40.2631 24.7628L40.22 24.2637ZM40.1719 24.2637L40.1623 24.7646H40.1719V24.2637ZM40.0331 24.1869L40.4456 23.9027L40.4233 23.8704L40.3963 23.842L40.0331 24.1869ZM36.7124 20.6901L36.3441 21.0297L36.3492 21.035L36.7124 20.6901ZM36.6278 20.4557L37.1283 20.4746L37.1284 20.472L36.6278 20.4557ZM31.0087 24.2643C31.0087 23.9877 30.7844 23.7634 30.5077 23.7634C30.2311 23.7634 30.0068 23.9877 30.0068 24.2643H31.0087ZM30.5077 30.8268V31.3278C30.7844 31.3278 31.0087 31.1035 31.0087 30.8268H30.5077ZM26.1363 30.3259C25.8597 30.3259 25.6354 30.5502 25.6354 30.8268C25.6354 31.1035 25.8597 31.3278 26.1363 31.3278V30.3259ZM38.8843 40.5437C39.0729 40.746 39.3899 40.7571 39.5923 40.5684C39.7946 40.3797 39.8057 40.0627 39.617 39.8604L38.8843 40.5437ZM37.4313 37.5166C37.2426 37.3143 36.9256 37.3032 36.7232 37.4919C36.5209 37.6806 36.5098 37.9976 36.6985 38.1999L37.4313 37.5166ZM21.3986 39.8604C21.2099 40.0627 21.2209 40.3797 21.4233 40.5684C21.6256 40.7571 21.9426 40.746 22.1313 40.5437L21.3986 39.8604ZM24.317 38.1999C24.5057 37.9976 24.4946 37.6806 24.2923 37.4919C24.09 37.3032 23.773 37.3143 23.5843 37.5166L24.317 38.1999ZM39.7516 30.8268C39.7516 28.881 39.2136 26.9763 38.2023 25.3534L37.352 25.8833C38.2621 27.3438 38.7497 29.0642 38.7497 30.8268H39.7516ZM38.2023 25.3534C37.1909 23.7302 35.7497 22.4595 34.0569 21.7076L33.6502 22.6233C35.1524 23.2905 36.4421 24.4231 37.352 25.8833L38.2023 25.3534ZM34.0569 21.7076C32.3635 20.9555 30.4979 20.758 28.6976 21.142L28.9066 22.1219C30.4983 21.7824 32.1484 21.9562 33.6502 22.6233L34.0569 21.7076ZM28.6976 21.142C26.8977 21.5259 25.2495 22.4725 23.9593 23.856L24.692 24.5393C25.8472 23.3006 27.3147 22.4614 28.9066 22.1219L28.6976 21.142ZM23.9593 23.856C22.6694 25.2392 21.7945 26.9973 21.4404 28.9065L22.4255 29.0892C22.746 27.3612 23.5365 25.7784 24.692 24.5393L23.9593 23.856ZM21.4404 28.9065C21.0862 30.8156 21.2677 32.7947 21.9631 34.595L22.8977 34.234C22.2697 32.6081 22.1049 30.8173 22.4255 29.0892L21.4404 28.9065ZM21.9631 34.595C22.6586 36.3954 23.8385 37.9398 25.3587 39.0291L25.9423 38.2146C24.587 37.2436 23.5257 35.8596 22.8977 34.234L21.9631 34.595ZM25.3587 39.0291C26.8795 40.1187 28.6714 40.7028 30.5078 40.7028V39.7009C28.8858 39.7009 27.297 39.1853 25.9423 38.2146L25.3587 39.0291ZM30.5078 40.7028C32.9711 40.7028 35.3258 39.6531 37.0563 37.7976L36.3235 37.1143C34.7748 38.7751 32.6819 39.7009 30.5078 39.7009V40.7028ZM37.0563 37.7976C38.7856 35.9432 39.7516 33.4352 39.7516 30.8268H38.7497C38.7497 33.1912 37.8734 35.4523 36.3235 37.1143L37.0563 37.7976ZM24.6199 19.8645C24.0725 19.3622 23.3705 19.0796 22.6379 19.0758L22.6328 20.0777C23.1079 20.0802 23.5723 20.263 23.9425 20.6027L24.6199 19.8645ZM22.62 19.0761L22.4675 19.0808L22.4983 20.0822L22.6508 20.0775L22.62 19.0761ZM22.4506 19.0816C20.7352 19.1924 19.5111 20.7788 19.5154 22.5663L20.5173 22.5639C20.514 21.1873 21.4383 20.151 22.5152 20.0814L22.4506 19.0816ZM19.5154 22.5651C19.5154 23.0119 19.5899 23.3648 19.7266 23.6798C19.8585 23.9838 20.0408 24.2318 20.2078 24.458L21.0139 23.8631C20.841 23.6288 20.726 23.4661 20.6457 23.2809C20.5701 23.1069 20.5173 22.8922 20.5173 22.5651H19.5154ZM20.2031 24.4515C20.264 24.5369 20.3427 24.6102 20.4359 24.6648L20.9423 23.8003C20.9745 23.8192 21 23.8434 21.0187 23.8696L20.2031 24.4515ZM20.4359 24.6648C20.5292 24.7195 20.6341 24.7536 20.7438 24.7633L20.832 23.7653C20.8724 23.7689 20.91 23.7814 20.9423 23.8003L20.4359 24.6648ZM20.7879 24.7652H20.836V23.7633H20.7879V24.7652ZM20.8456 24.7651C20.9555 24.763 21.0619 24.7338 21.1562 24.6816L20.6713 23.8049C20.7174 23.7794 20.7706 23.7645 20.8264 23.7634L20.8456 24.7651ZM21.1562 24.6816C21.2502 24.6296 21.3286 24.5569 21.3873 24.4718L20.5623 23.9033C20.5888 23.8649 20.6253 23.8303 20.6713 23.8049L21.1562 24.6816ZM21.3381 24.5324L24.6587 21.035L23.9321 20.3451L20.6115 23.8426L21.3381 24.5324ZM24.6637 21.0297C24.7384 20.9486 24.795 20.854 24.8316 20.7526L23.8894 20.4121C23.8969 20.3913 23.9091 20.37 23.9271 20.3505L24.6637 21.0297ZM24.8316 20.7526C24.8683 20.6512 24.8847 20.5438 24.8807 20.4368L23.8795 20.4746C23.8787 20.454 23.8819 20.4328 23.8894 20.4121L24.8316 20.7526ZM24.8808 20.4394C24.8773 20.3332 24.8535 20.2279 24.8098 20.1298L23.8946 20.5374C23.885 20.5157 23.8801 20.4935 23.8794 20.472L24.8808 20.4394ZM24.8098 20.1298C24.7661 20.0317 24.7029 19.9418 24.6224 19.8668L23.94 20.6004C23.9191 20.581 23.9043 20.5591 23.8946 20.5374L24.8098 20.1298ZM37.0653 20.6027C37.4355 20.263 37.9 20.0802 38.3751 20.0777L38.3699 19.0758C37.6373 19.0796 36.9354 19.3622 36.388 19.8645L37.0653 20.6027ZM38.3571 20.0775L38.5096 20.0822L38.5403 19.0808L38.3879 19.0761L38.3571 20.0775ZM38.4926 20.0814C39.5695 20.151 40.4939 21.1873 40.4906 22.5639L41.4925 22.5663C41.4968 20.7788 40.2726 19.1924 38.5573 19.0816L38.4926 20.0814ZM40.4906 22.5651C40.4906 22.8922 40.4377 23.1069 40.3622 23.2809C40.2818 23.4661 40.1669 23.6288 39.9939 23.8631L40.8001 24.458C40.967 24.2318 41.1493 23.9838 41.2813 23.6798C41.418 23.3648 41.4925 23.0119 41.4925 22.5651H40.4906ZM39.9901 23.8685C40.0088 23.8423 40.0343 23.8181 40.0665 23.7994L40.5708 24.6651C40.664 24.6108 40.7429 24.5378 40.804 24.4527L39.9901 23.8685ZM40.0665 23.7994C40.0989 23.7805 40.1365 23.7681 40.1768 23.7646L40.2631 24.7628C40.3726 24.7533 40.4775 24.7195 40.5708 24.6651L40.0665 23.7994ZM40.22 23.7628H40.1719V24.7646H40.22V23.7628ZM40.1815 23.7628C40.2373 23.7639 40.2904 23.7788 40.3366 23.8043L39.8517 24.681C39.946 24.7332 40.0523 24.7624 40.1623 24.7646L40.1815 23.7628ZM40.3366 23.8043C40.3825 23.8297 40.4191 23.8643 40.4456 23.9027L39.6206 24.4712C39.6793 24.5563 39.7576 24.629 39.8517 24.681L40.3366 23.8043ZM40.3963 23.842L37.0757 20.3451L36.3492 21.035L39.6698 24.5319L40.3963 23.842ZM37.0807 20.3505C37.0987 20.37 37.111 20.3913 37.1185 20.4121L36.1762 20.7526C36.2129 20.854 36.2695 20.9486 36.3442 21.0297L37.0807 20.3505ZM37.1185 20.4121C37.126 20.4328 37.1291 20.454 37.1283 20.4746L36.1272 20.4368C36.1231 20.5438 36.1396 20.6512 36.1762 20.7526L37.1185 20.4121ZM37.1284 20.472C37.1277 20.4935 37.1229 20.5157 37.1132 20.5374L36.198 20.1298C36.1543 20.2279 36.1305 20.3332 36.1271 20.4394L37.1284 20.472ZM37.1132 20.5374C37.1036 20.5591 37.0887 20.581 37.0678 20.6004L36.3855 19.8668C36.3049 19.9418 36.2417 20.0317 36.198 20.1298L37.1132 20.5374ZM30.0068 24.2643V30.8268H31.0087V24.2643H30.0068ZM30.5077 30.3259H26.1363V31.3278H30.5077V30.3259ZM39.617 39.8604L37.4313 37.5166L36.6985 38.1999L38.8843 40.5437L39.617 39.8604ZM22.1313 40.5437L24.317 38.1999L23.5843 37.5166L21.3986 39.8604L22.1313 40.5437Z" fill="#AACE9B"/>
<path d="M31.1303 1.99994L2.10425 31.026L31.1303 60.0521L60.1564 31.026L31.1303 1.99994Z" stroke="#AACE9B" stroke-width="2" stroke-linecap="round"/>
</svg>
