<svg width="14" height="12" viewBox="0 0 14 12" fill="none" xmlns="http://www.w3.org/2000/svg">
<path fill-rule="evenodd" clip-rule="evenodd" d="M1.90908 0H12.0908C13.1372 0 13.9916 0.849401 13.9998 1.89392C14 1.90271 14.0001 1.9115 13.9999 1.92028V9.54538C13.9999 10.5968 13.1423 11.4545 12.0908 11.4545H1.90908C0.85763 11.4545 0 10.5968 0 9.54538V1.90908C0 0.85763 0.85763 0 1.90908 0ZM12.6593 1.62531C12.5541 1.41716 12.3376 1.27272 12.0907 1.27272H1.90899C1.66213 1.27272 1.44574 1.41709 1.34048 1.62517L7 5.58683L12.6593 1.62531ZM1.27263 3.13122L6.63507 6.88493C6.85418 7.03831 7.14582 7.03831 7.36493 6.88493L12.7271 3.13142V9.54538C12.7271 9.89392 12.4393 10.1817 12.0907 10.1817H1.90899C1.56045 10.1817 1.27263 9.89392 1.27263 9.54538V3.13122Z" fill="#FFFFFF"/>
<mask id="mask0_35_725" style="mask-type:alpha" maskUnits="userSpaceOnUse" x="0" y="0" width="14" height="12">
<path fill-rule="evenodd" clip-rule="evenodd" d="M1.90908 0H12.0908C13.1372 0 13.9916 0.849401 13.9998 1.89392C14 1.90271 14.0001 1.9115 13.9999 1.92028V9.54538C13.9999 10.5968 13.1423 11.4545 12.0908 11.4545H1.90908C0.85763 11.4545 0 10.5968 0 9.54538V1.90908C0 0.85763 0.85763 0 1.90908 0ZM12.6593 1.62531C12.5541 1.41716 12.3376 1.27272 12.0907 1.27272H1.90899C1.66213 1.27272 1.44574 1.41709 1.34048 1.62517L7 5.58683L12.6593 1.62531ZM1.27263 3.13122L6.63507 6.88493C6.85418 7.03831 7.14582 7.03831 7.36493 6.88493L12.7271 3.13142V9.54538C12.7271 9.89392 12.4393 10.1817 12.0907 10.1817H1.90899C1.56045 10.1817 1.27263 9.89392 1.27263 9.54538V3.13122Z" fill="white"/>
</mask>
<g mask="url(#mask0_35_725)">
<rect x="-0.636353" y="-1.90906" width="15.2726" height="15.2726" fill="#FFFFFF"/>
</g>
</svg>