<svg width="20" height="20" viewBox="0 0 20 20" fill="none" xmlns="http://www.w3.org/2000/svg">
<path d="M8.12427 8.12598V18.4385C8.12285 18.562 8.14614 18.6845 8.19275 18.7989C8.23936 18.9133 8.30837 19.0172 8.39571 19.1045C8.48304 19.1919 8.58696 19.2609 8.70134 19.3075C8.81572 19.3541 8.93826 19.3774 9.06177 19.376V19.376C9.18527 19.3774 9.30782 19.3541 9.4222 19.3075C9.53658 19.2609 9.64049 19.1919 9.72783 19.1045C9.81517 19.0172 9.88417 18.9133 9.93078 18.7989C9.9774 18.6845 10.0007 18.562 9.99927 18.4385" stroke="#41426F" stroke-width="1.00189" stroke-miterlimit="10" stroke-linecap="round"/>
<path d="M9.99982 13.126V18.4385C9.9984 18.562 10.0217 18.6845 10.0683 18.7989C10.1149 18.9133 10.1839 19.0172 10.2713 19.1045C10.3586 19.1919 10.4625 19.2609 10.5769 19.3075C10.6913 19.3541 10.8138 19.3774 10.9373 19.376C11.0608 19.3774 11.1834 19.3541 11.2977 19.3075C11.4121 19.2609 11.516 19.1919 11.6034 19.1045C11.6907 19.0172 11.7597 18.9133 11.8063 18.7989C11.8529 18.6845 11.8762 18.562 11.8748 18.4385V8.12598" stroke="#41426F" stroke-width="1.00189" stroke-miterlimit="10" stroke-linecap="round"/>
<path d="M8.12497 7.50063V10.9386C8.12643 11.0622 8.10318 11.1847 8.05658 11.2992C8.00998 11.4136 7.94097 11.5175 7.85361 11.6049C7.76625 11.6923 7.6623 11.7613 7.54788 11.8079C7.43346 11.8545 7.31087 11.8777 7.18733 11.8763V11.8763C7.06379 11.8777 6.94121 11.8545 6.82679 11.8079C6.71237 11.7613 6.60842 11.6923 6.52106 11.6049C6.4337 11.5175 6.36468 11.4136 6.31808 11.2992C6.27148 11.1847 6.24823 11.0622 6.2497 10.9386V7.50063C6.2497 7.00328 6.44727 6.5263 6.79895 6.17462C7.15063 5.82294 7.62762 5.62537 8.12497 5.62537H11.8755C12.3729 5.62537 12.8498 5.82294 13.2015 6.17462C13.5532 6.5263 13.7508 7.00328 13.7508 7.50063V10.9386C13.7522 11.0622 13.729 11.1847 13.6824 11.2992C13.6358 11.4136 13.5668 11.5175 13.4794 11.6049C13.3921 11.6923 13.2881 11.7613 13.1737 11.8079C13.0593 11.8545 12.9367 11.8777 12.8131 11.8763V11.8763C12.6896 11.8777 12.567 11.8545 12.4526 11.8079C12.3382 11.7613 12.2342 11.6923 12.1469 11.6049C12.0595 11.5175 11.9905 11.4136 11.9439 11.2992C11.8973 11.1847 11.874 11.0622 11.8755 10.9386V7.50063" stroke="#41426F" stroke-width="1.00189" stroke-miterlimit="10" stroke-linecap="round"/>
<path d="M10.001 3.75315C10.8645 3.75315 11.5646 3.05308 11.5646 2.1895C11.5646 1.32592 10.8645 0.625854 10.001 0.625854C9.13739 0.625854 8.43732 1.32592 8.43732 2.1895C8.43732 3.05308 9.13739 3.75315 10.001 3.75315Z" stroke="#41426F" stroke-width="1.00189" stroke-miterlimit="10" stroke-linecap="round"/>
</svg>
