<svg width="22" height="20" viewBox="0 0 22 20" fill="none" xmlns="http://www.w3.org/2000/svg">
<path d="M8.24988 6.875V5.3125C8.24988 4.8981 8.43096 4.50067 8.75329 4.20765C9.07562 3.91462 9.51279 3.75 9.96863 3.75H16.8436C17.2995 3.75 17.7366 3.91462 18.059 4.20765C18.3813 4.50067 18.5624 4.8981 18.5624 5.3125V14.6875C18.5624 15.1019 18.3813 15.4993 18.059 15.7924C17.7366 16.0854 17.2995 16.25 16.8436 16.25H10.3124C9.3632 16.25 8.24988 15.5504 8.24988 14.6875V13.125" stroke="#41426F" stroke-width="1.00189" stroke-linecap="round" stroke-linejoin="round"/>
<path d="M12.3751 13.1259L15.8131 10.0004L12.3751 6.875" stroke="#41426F" stroke-width="1.00189" stroke-linecap="round" stroke-linejoin="round"/>
<path d="M3.43689 9.99988H15.1244" stroke="#41426F" stroke-width="1.00189" stroke-linecap="round" stroke-linejoin="round"/>
</svg>
