<svg width="62" height="62" viewBox="0 0 62 62" fill="none" xmlns="http://www.w3.org/2000/svg">
<path d="M31.0261 1.99994L2 31.026L31.0261 60.0521L60.0521 31.026L31.0261 1.99994Z" stroke="#AACE9B" stroke-width="2" stroke-linecap="round"/>
<path d="M39.0972 24.9554C38.9369 27.3388 37.2867 29.1748 35.4873 29.1748C33.6878 29.1748 32.0349 27.3394 31.8774 24.9554C31.7133 22.476 33.3197 20.7361 35.4873 20.7361C37.6548 20.7361 39.2612 22.5211 39.0972 24.9554Z" stroke="#AACE9B" stroke-width="1.00189" stroke-linecap="round" stroke-linejoin="round"/>
<path d="M35.4862 32.9242C31.9222 32.9242 28.4949 34.8209 27.6363 38.5146C27.5226 39.0033 27.8086 39.4867 28.2773 39.4867H42.6956C43.1643 39.4867 43.4487 39.0033 43.3366 38.5146C42.478 34.7617 39.0507 32.9242 35.4862 32.9242Z" stroke="#AACE9B" stroke-width="1.00189" stroke-miterlimit="10"/>
<path d="M28.0504 26.0078C27.9224 27.9117 26.5886 29.4111 25.1508 29.4111C23.713 29.4111 22.377 27.9122 22.2512 26.0078C22.1204 24.0271 23.4187 22.6115 25.1508 22.6115C26.8829 22.6115 28.1812 24.0634 28.0504 26.0078Z" stroke="#AACE9B" stroke-width="1.00189" stroke-linecap="round" stroke-linejoin="round"/>
<path d="M28.3771 33.0405C27.3899 32.5559 26.3025 32.3695 25.1501 32.3695C22.306 32.3695 19.5657 33.8844 18.8793 36.835C18.7891 37.2253 19.0177 37.6115 19.3918 37.6115H25.533" stroke="#AACE9B" stroke-width="1.00189" stroke-miterlimit="10" stroke-linecap="round"/>
</svg>
