<svg width="62" height="62" viewBox="0 0 62 62" fill="none" xmlns="http://www.w3.org/2000/svg">
<path d="M31.1824 1.99994L2.15637 31.026L31.1824 60.0521L60.2085 31.026L31.1824 1.99994Z" stroke="#AACE9B" stroke-width="2" stroke-linecap="round"/>
<g clip-path="url(#clip0_35_691)">
<path d="M39.3209 19.8586H32.5981C32.3892 19.8585 32.1886 19.9411 32.0403 20.0883L18.6003 33.5251C18.3061 33.8207 18.1409 34.2208 18.1409 34.6379C18.1409 35.055 18.3061 35.4552 18.6003 35.7508L24.9988 42.1493C25.2945 42.4435 25.6947 42.6087 26.1119 42.6087C26.5291 42.6087 26.9293 42.4435 27.2251 42.1493L40.6613 28.718C40.8085 28.5697 40.8911 28.3692 40.891 28.1602V21.4336C40.892 21.2269 40.8521 21.0221 40.7736 20.8309C40.6951 20.6396 40.5796 20.4658 40.4336 20.3194C40.2877 20.1731 40.1143 20.057 39.9233 19.9779C39.7323 19.8988 39.5276 19.8583 39.3209 19.8586Z" stroke="#AACE9B" stroke-width="1.00189" stroke-linecap="round" stroke-linejoin="round"/>
<path d="M36.517 25.987C36.1706 25.987 35.832 25.8842 35.544 25.6918C35.256 25.4994 35.0315 25.2259 34.899 24.9059C34.7664 24.5858 34.7318 24.2337 34.7993 23.894C34.8669 23.5543 35.0337 23.2422 35.2786 22.9973C35.5235 22.7524 35.8356 22.5856 36.1753 22.518C36.515 22.4505 36.8672 22.4851 37.1872 22.6177C37.5072 22.7502 37.7807 22.9747 37.9731 23.2627C38.1656 23.5507 38.2683 23.8893 38.2683 24.2357C38.2683 24.7001 38.0838 25.1456 37.7553 25.474C37.4269 25.8024 36.9814 25.987 36.517 25.987Z" fill="#AACE9B"/>
<path d="M29.8441 44.3594L44.1723 30.0313C44.2435 29.9594 44.2996 29.874 44.3371 29.78C44.3747 29.6861 44.393 29.5855 44.391 29.4844V22.4844" stroke="#AACE9B" stroke-width="1.00189" stroke-linecap="round" stroke-linejoin="round"/>
</g>
<defs>
<clipPath id="clip0_35_691">
<rect width="28" height="28" fill="white" transform="translate(17.2667 18.1105)"/>
</clipPath>
</defs>
</svg>
