<svg width="62" height="62" viewBox="0 0 62 62" fill="none" xmlns="http://www.w3.org/2000/svg">
<path d="M41.5702 31.1106C41.5702 25.3137 36.6929 20.6106 30.6813 20.6106C24.6697 20.6106 19.7924 25.3137 19.7924 31.1106C19.7924 36.9075 24.6697 41.6106 30.6813 41.6106C36.6929 41.6106 41.5702 36.9075 41.5702 31.1106Z" stroke="#AACE9B" stroke-width="1.00189" stroke-miterlimit="10"/>
<path d="M30.3559 26.1907L30.6814 32.8608L31.0065 26.1907C31.0085 26.1481 31.0014 26.1055 30.9858 26.0656C30.9702 26.0256 30.9462 25.9892 30.9155 25.9585C30.8848 25.9278 30.8478 25.9034 30.807 25.8869C30.7662 25.8704 30.7223 25.8621 30.678 25.8626V25.8626C30.6343 25.863 30.5911 25.8719 30.551 25.8887C30.5109 25.9056 30.4747 25.93 30.4447 25.9607C30.4146 25.9913 30.3912 26.0275 30.376 26.067C30.3607 26.1065 30.3539 26.1486 30.3559 26.1907V26.1907Z" stroke="#AACE9B" stroke-width="1.00189" stroke-linecap="round" stroke-linejoin="round"/>
<path d="M30.6866 37.2414C30.4612 37.2414 30.2408 37.1769 30.0534 37.0562C29.8659 36.9354 29.7199 36.7638 29.6336 36.5629C29.5473 36.3621 29.5248 36.1411 29.5687 35.9279C29.6127 35.7148 29.7213 35.5189 29.8807 35.3652C30.0401 35.2115 30.2431 35.1069 30.4642 35.0645C30.6853 35.022 30.9145 35.0438 31.1227 35.127C31.331 35.2102 31.509 35.351 31.6342 35.5318C31.7595 35.7125 31.8263 35.925 31.8263 36.1424C31.8263 36.4338 31.7062 36.7134 31.4925 36.9195C31.2787 37.1256 30.9888 37.2414 30.6866 37.2414Z" fill="#AACE9B"/>
<path d="M31.0782 1.99994L2.05212 31.026L31.0782 60.0521L60.1042 31.026L31.0782 1.99994Z" stroke="#AACE9B" stroke-width="2" stroke-linecap="round"/>
</svg>
